<?xml version="1.0" encoding="UTF-8" standalone="yes"?>
<!-- Created with sK1/UniConvertor (http://sk1project.org/) -->
<svg xmlns="http://www.w3.org/2000/svg" xmlns:xlink="http://www.w3.org/1999/xlink"
  width="799pt" height="723pt" viewBox="0 0 799 723"
  fill-rule="evenodd">
<g>
<g>
<path style="stroke:none; fill:#000000" d="M 413 43C 393.5 44.8 370.7 49 352.9 54C 299.9 69 248.7 100.3 212.9 139.6C 205.9 147.3 195.5 161.8 196.4 162.8C 197.4 163.7 210.1 152.9 224.5 139C 251.1 113.2 273.9 96.6 302.7 82.2C 367.5 49.6 443.6 40.6 511.5 57.6C 516.9 59.0001 521.8 60.4 522.3 60.7C 522.8 61 518.3 63.4 512.4 66C 480.3 79.9 463.5 90.4 447 107C 434 120 427.8 128 418.9 142.9C 410.6 156.8 404.5 170.8 400.5 185.7C 395.7 203.1 394 216 394 234.8C 394 266.2 401.2 293.7 416.5 321.4C 441.9 367.1 486.1 399 539.8 410.2C 548.9 412.1 553.6 412.5 571.5 412.5C 589.4 412.5 594.1 412.1 603.1 410.2C 631.9 404.2 655.1 394.5 675.5 380C 686.9 371.9 705.4 353.9 713.4 343.3C 720.4 334 729.9 318.3 735.6 306.7C 737.7 302.5 739.7 299 740.1 299C 742.2 299 745.4 348.4 744.5 366.4C 740.9 440.1 710.7 510.6 660 563.3C 636.6 587.6 614.8 604.2 585 620.4C 568.6 629.4 561.5 633.6 556 637.8L 551.5 641.2L 556 640.5C 568.2 638.5 587.1 629.3 609.4 614.7C 625.8 603.9 632.4 599 647 586.4C 700.4 540.6 738.4 470.6 748.5 399.8C 752 375.2 751.5 325.4 747.4 302.2C 745.6 291.8 742 278 741 278C 740.6 278 737.5 284.2 734 291.7C 719.1 324.3 712.1 335.5 696.7 351.6C 665.6 384.2 624 402.9 578.4 404.7C 537.7 406.4 501.6 394.8 468.2 369.5C 431.1 341.4 407.9 301.1 402.4 255C 400 235 400.9 216.9 405.1 197.1C 410.9 170.5 424.5 143.4 442.6 122.5C 464.4 97.5 488.4 82.5 528.3 68.9C 538.6 65.4 546.9 62.1 546.7 61.6C 546.5 61.1 543.1 59.4 539 57.8C 524.3 52.2001 501.6 46.6 482.5 44.0001C 472.1 42.6 425.2 41.9 413 43z"/>
<path style="stroke:none; fill:#000000" d="M 150.8 164.7C 145.7 170.4 139.1 180.1 130 195C 108.4 230.6 106 241.3 105.9 303.3C 105.7 353.3 106.9 359.4 124.3 397.5C 131.9 414.3 136.7 427 144.6 450.9C 150.3 468.2 154.8 482.5 154.6 482.7C 154 483.4 144.8 476 134.5 466.5C 127.6 460.3 122.5 454.1 113.5 441.4C 91.6 410.6 79.7 396.7 66.6 386.8C 58.7 380.8 40.5 371.1 39.4 372.3C 37.3 374.3 46.8 393.8 61.2 416.8C 66.2 424.9 75.3 441.2 81.4 453C 102.6 494 102.9 494.2 154.5 522.5C 184.6 539.1 190.7 543.6 214 566.9C 238.8 591.8 260.5 608.7 290 626.1L 297.5 630.5L 290 630.8C 280.6 631.2 267.2 629.5 261 627.1C 258.3 626.1 250.7 621.8 243.9 617.5C 237.2 613.2 228.9 608.5 225.6 607C 217 603.1 180.7 596 149.2 592C 125.4 589.1 126.4 588.8 133.5 596.1C 144.3 607 154.2 614.5 175.5 627.9C 195.5 640.5 219.3 653.4 228.3 656.6C 233.2 658.4 282.1 671.3 289.8 672.9C 302.2 675.5 313.5 673.8 341.1 665.3C 365.3 658 373.8 657.4 400.5 661.6C 416.4 664.1 421.2 664.4 442 664.4C 465.7 664.4 476.3 663.5 493.5 660C 504.1 657.8 516.7 653.8 521.8 651L 525.5 648.9L 518.5 649.5C 514.7 649.9 502.3 651.5 491 653.2C 441.4 660.6 394.6 656.8 346.3 641.6C 332.8 637.4 324 633.1 321 629.3C 317.5 624.9 310.5 609.5 306.7 598C 303.1 586.9 299.7 569.9 295.5 541C 289 496.9 280.4 475.3 262.4 457.8C 255.1 450.9 247.4 445.9 237.8 442.2C 230.5 439.2 215.2 435.4 214.4 436.3C 214.1 436.5 217.5 443.9 221.9 452.6C 234.3 477.3 234.5 478.2 236.5 504C 240.3 552.9 247.5 571.7 274.8 604.4C 277.1 607.2 278.8 609.6 278.6 609.8C 278.3 610 274 607.3 268.8 603.9C 244.9 587.8 225.8 571 211.9 553.7C 198.6 537.2 194.9 527.3 192.9 502.9C 191.5 485.5 192.7 472.8 197.6 452.9C 199.6 445 202.7 429.5 204.5 418.5C 207 403.7 209.2 394.3 213 382.5C 220.6 358.9 222.1 351.7 222.1 338.7C 222.1 324.8 219.1 312.2 213 299.9C 208.8 291.5 200 277.7 199.3 278.4C 199.1 278.6 198 285.7 196.9 294.1C 194.3 314.7 192.7 320.5 182.2 348C 172.3 373.9 168.6 385 164.3 401.5C 161.5 412.4 161.5 412.7 161.5 442.7C 161.6 459.4 161.5 473 161.4 473C 160.8 473 151.4 449.3 149.5 442.9C 144 424.5 143.9 415.4 148.9 385.5C 156 343.2 156.3 339.9 156.6 296C 156.8 258.4 157.7 238.3 160 218.5C 162.3 199.2 163 184.7 162 178.3C 160.7 170.2 157.3 161 155.5 161C 154.8 161 152.7 162.7 150.8 164.7z"/>
<path style="stroke:none; fill:#000000" d="M 184.8 173.2C 182.2 175.4 181.9 177.9 184 180C 185.1 181.1 186.5 182 187 182C 188.3 182 192 178.3 192 177C 192 175.8 188.3 172 187.2 172C 186.7 172 185.7 172.6 184.8 173.2z"/>
<path style="stroke:none; fill:#000000" d="M 534.2 642.2C 531.2 645.2 533.9 650.5 538.1 649.8C 541.3 649.3 542.6 646.7 541.2 643.6C 539.9 640.8 536.3 640.1 534.2 642.2z"/>
</g>
</g>
</svg>